<mxfile host="app.diagrams.net" agent="Mozilla/5.0 (Windows NT 10.0; Win64; x64) AppleWebKit/537.36 (KHTML, like Gecko) Chrome/136.0.0.0 Safari/537.36" version="27.0.6">
  <diagram id="C5RBs43oDa-KdzZeNtuy" name="Page-1">
    <mxGraphModel dx="1371" dy="705" grid="1" gridSize="10" guides="1" tooltips="1" connect="1" arrows="1" fold="1" page="1" pageScale="1" pageWidth="827" pageHeight="1169" math="0" shadow="0">
      <root>
        <mxCell id="WIyWlLk6GJQsqaUBKTNV-0" />
        <mxCell id="WIyWlLk6GJQsqaUBKTNV-1" parent="WIyWlLk6GJQsqaUBKTNV-0" />
        <mxCell id="tYwfjY5xRJ79dKcbQhgg-0" value="" style="endArrow=none;html=1;rounded=0;strokeColor=light-dark(#000000, #121212);startArrow=block;startFill=0;entryX=0.502;entryY=1;entryDx=0;entryDy=0;entryPerimeter=0;exitX=0.5;exitY=0;exitDx=0;exitDy=0;" edge="1" parent="WIyWlLk6GJQsqaUBKTNV-1" source="tuQ0a4XlxuVtjZ9UOgZp-5" target="tuQ0a4XlxuVtjZ9UOgZp-3">
          <mxGeometry width="50" height="50" relative="1" as="geometry">
            <mxPoint x="509.58000000000004" y="280" as="sourcePoint" />
            <mxPoint x="509.58000000000004" y="230" as="targetPoint" />
          </mxGeometry>
        </mxCell>
        <mxCell id="zkfFHV4jXpPFQw0GAbJ--0" value="Time" style="swimlane;fontStyle=2;align=center;verticalAlign=top;childLayout=stackLayout;horizontal=1;startSize=26;horizontalStack=0;resizeParent=1;resizeLast=0;collapsible=1;marginBottom=0;rounded=0;shadow=0;strokeWidth=1;" parent="WIyWlLk6GJQsqaUBKTNV-1" vertex="1">
          <mxGeometry x="40" y="40" width="220" height="380" as="geometry">
            <mxRectangle x="230" y="140" width="160" height="26" as="alternateBounds" />
          </mxGeometry>
        </mxCell>
        <mxCell id="zkfFHV4jXpPFQw0GAbJ--1" value="+ day: int&#xa;+ month: int&#xa;+ year: int&#xa;+ v: int&#xa;+ price: int&#xa;+ name: QString" style="text;align=left;verticalAlign=top;spacingLeft=4;spacingRight=4;overflow=hidden;rotatable=0;points=[[0,0.5],[1,0.5]];portConstraint=eastwest;" parent="zkfFHV4jXpPFQw0GAbJ--0" vertex="1">
          <mxGeometry y="26" width="220" height="94" as="geometry" />
        </mxCell>
        <mxCell id="zkfFHV4jXpPFQw0GAbJ--4" value="" style="line;html=1;strokeWidth=1;align=left;verticalAlign=middle;spacingTop=-1;spacingLeft=3;spacingRight=3;rotatable=0;labelPosition=right;points=[];portConstraint=eastwest;" parent="zkfFHV4jXpPFQw0GAbJ--0" vertex="1">
          <mxGeometry y="120" width="220" height="10" as="geometry" />
        </mxCell>
        <mxCell id="VaQFGFGpeIOZ7HrMrQeK-2" value="+ Time()&#xa;+ Time(QString, int, int, int, int, int)&#xa;+ ~Time()&#xa;+ get_day() : int&#xa;+ get_month() : int&#xa;+ get_year() : int &#xa;+ get_v() : int&#xa;+ get_price() : int&#xa;+ set_price(p: int) : void&#xa;+ get_name() : QString&#xa;+ set_day(day : int) : void&#xa;+ set_year(year : int) : void&#xa;+ set_v(v : int) : void&#xa;+ set_name(n : const QString) : void&#xa;+ operator==(p : const Time&amp;) : bool&#xa;+ operator=(p : const Time&amp;) : Time&amp;&#xa;+ toString() : QString&#xa;" style="text;align=left;verticalAlign=top;spacingLeft=4;spacingRight=4;overflow=hidden;rotatable=0;points=[[0,0.5],[1,0.5]];portConstraint=eastwest;" parent="zkfFHV4jXpPFQw0GAbJ--0" vertex="1">
          <mxGeometry y="130" width="220" height="240" as="geometry" />
        </mxCell>
        <mxCell id="tuQ0a4XlxuVtjZ9UOgZp-0" value="Dialog" style="swimlane;fontStyle=2;align=center;verticalAlign=top;childLayout=stackLayout;horizontal=1;startSize=26;horizontalStack=0;resizeParent=1;resizeLast=0;collapsible=1;marginBottom=0;rounded=0;shadow=0;strokeWidth=1;" parent="WIyWlLk6GJQsqaUBKTNV-1" vertex="1">
          <mxGeometry x="400" y="40" width="220" height="200" as="geometry">
            <mxRectangle x="230" y="140" width="160" height="26" as="alternateBounds" />
          </mxGeometry>
        </mxCell>
        <mxCell id="tuQ0a4XlxuVtjZ9UOgZp-1" value="- *ui: Ui::Dialog&#xa;" style="text;align=left;verticalAlign=top;spacingLeft=4;spacingRight=4;overflow=hidden;rotatable=0;points=[[0,0.5],[1,0.5]];portConstraint=eastwest;" parent="tuQ0a4XlxuVtjZ9UOgZp-0" vertex="1">
          <mxGeometry y="26" width="220" height="24" as="geometry" />
        </mxCell>
        <mxCell id="tuQ0a4XlxuVtjZ9UOgZp-2" value="" style="line;html=1;strokeWidth=1;align=left;verticalAlign=middle;spacingTop=-1;spacingLeft=3;spacingRight=3;rotatable=0;labelPosition=right;points=[];portConstraint=eastwest;" parent="tuQ0a4XlxuVtjZ9UOgZp-0" vertex="1">
          <mxGeometry y="50" width="220" height="10" as="geometry" />
        </mxCell>
        <mxCell id="tuQ0a4XlxuVtjZ9UOgZp-3" value="+ Dialog(*parent: QWidget) : explicit&#xa;+ ~Dialog()&#xa;- on_buttonBox_accepted() : void&#xa;- line1(&amp;arg1: const QString) : void&#xa;- line2(&amp;arg: const QString) : void&#xa;- line3(&amp;arg: const QString) : void &#xa;- line4(&amp;arg: const QString) : void&#xa;- line5(&amp;arg: const QString) : void&#xa;- line6(&amp;arg: const QString) : void&#xa;&#xa;" style="text;align=left;verticalAlign=top;spacingLeft=4;spacingRight=4;overflow=hidden;rotatable=0;points=[[0,0.5],[1,0.5]];portConstraint=eastwest;" parent="tuQ0a4XlxuVtjZ9UOgZp-0" vertex="1">
          <mxGeometry y="60" width="220" height="140" as="geometry" />
        </mxCell>
        <mxCell id="tuQ0a4XlxuVtjZ9UOgZp-5" value="QDialog" style="swimlane;fontStyle=2;align=center;verticalAlign=top;childLayout=stackLayout;horizontal=1;startSize=26;horizontalStack=0;resizeParent=1;resizeLast=0;collapsible=1;marginBottom=0;rounded=0;shadow=0;strokeWidth=1;" parent="WIyWlLk6GJQsqaUBKTNV-1" vertex="1">
          <mxGeometry x="440" y="280" width="140" height="80" as="geometry">
            <mxRectangle x="230" y="140" width="160" height="26" as="alternateBounds" />
          </mxGeometry>
        </mxCell>
        <mxCell id="tuQ0a4XlxuVtjZ9UOgZp-7" value="" style="line;html=1;strokeWidth=1;align=left;verticalAlign=middle;spacingTop=-1;spacingLeft=3;spacingRight=3;rotatable=0;labelPosition=right;points=[];portConstraint=eastwest;" parent="tuQ0a4XlxuVtjZ9UOgZp-5" vertex="1">
          <mxGeometry y="26" width="140" height="24" as="geometry" />
        </mxCell>
        <mxCell id="tYwfjY5xRJ79dKcbQhgg-1" value="MainWindow" style="swimlane;fontStyle=2;align=center;verticalAlign=top;childLayout=stackLayout;horizontal=1;startSize=26;horizontalStack=0;resizeParent=1;resizeLast=0;collapsible=1;marginBottom=0;rounded=0;shadow=0;strokeWidth=1;" vertex="1" parent="WIyWlLk6GJQsqaUBKTNV-1">
          <mxGeometry x="700" y="40" width="340" height="300" as="geometry">
            <mxRectangle x="230" y="140" width="160" height="26" as="alternateBounds" />
          </mxGeometry>
        </mxCell>
        <mxCell id="tYwfjY5xRJ79dKcbQhgg-2" value="- *ui: Ui::MainWindow&#xa;- fileWatcheri: QFileSystemWatcher&#xa;- *m_updateTimer : QTimer &#xa;- *m_updateTimer2: QTimer" style="text;align=left;verticalAlign=top;spacingLeft=4;spacingRight=4;overflow=hidden;rotatable=0;points=[[0,0.5],[1,0.5]];portConstraint=eastwest;" vertex="1" parent="tYwfjY5xRJ79dKcbQhgg-1">
          <mxGeometry y="26" width="340" height="64" as="geometry" />
        </mxCell>
        <mxCell id="tYwfjY5xRJ79dKcbQhgg-3" value="" style="line;html=1;strokeWidth=1;align=left;verticalAlign=middle;spacingTop=-1;spacingLeft=3;spacingRight=3;rotatable=0;labelPosition=right;points=[];portConstraint=eastwest;" vertex="1" parent="tYwfjY5xRJ79dKcbQhgg-1">
          <mxGeometry y="90" width="340" height="10" as="geometry" />
        </mxCell>
        <mxCell id="tYwfjY5xRJ79dKcbQhgg-4" value="+ MainWindow(*parent : QWidget)&#xa;+ ~MainWindow()&#xa;+ getTimeNameFromText(itemText: const QString&amp;) : QString &#xa;- on_AddTask_clicked() : void&#xa;- sortVEC() : void&#xa;- populateListWidget() : void&#xa;- on_listWidget_itemClicked(*item: QListWidgetItem) : void&#xa;- DeleteItem(*item: QListWidgetItem) : void&#xa;- CompleteItem(QListWidgetItem *item) : void&#xa;- onFileChanged(&amp;path: const QString) : void&#xa;- on_delTask_clicked() : void&#xa;- on_delTask_2_clicked() : void&#xa;- on_stats_clicked() : void&#xa;&#xa;" style="text;align=left;verticalAlign=top;spacingLeft=4;spacingRight=4;overflow=hidden;rotatable=0;points=[[0,0.5],[1,0.5]];portConstraint=eastwest;" vertex="1" parent="tYwfjY5xRJ79dKcbQhgg-1">
          <mxGeometry y="100" width="340" height="200" as="geometry" />
        </mxCell>
        <mxCell id="tYwfjY5xRJ79dKcbQhgg-6" value="QMainWindow" style="swimlane;fontStyle=2;align=center;verticalAlign=top;childLayout=stackLayout;horizontal=1;startSize=26;horizontalStack=0;resizeParent=1;resizeLast=0;collapsible=1;marginBottom=0;rounded=0;shadow=0;strokeWidth=1;" vertex="1" parent="WIyWlLk6GJQsqaUBKTNV-1">
          <mxGeometry x="800" y="380" width="140" height="80" as="geometry">
            <mxRectangle x="230" y="140" width="160" height="26" as="alternateBounds" />
          </mxGeometry>
        </mxCell>
        <mxCell id="tYwfjY5xRJ79dKcbQhgg-7" value="" style="line;html=1;strokeWidth=1;align=left;verticalAlign=middle;spacingTop=-1;spacingLeft=3;spacingRight=3;rotatable=0;labelPosition=right;points=[];portConstraint=eastwest;" vertex="1" parent="tYwfjY5xRJ79dKcbQhgg-6">
          <mxGeometry y="26" width="140" height="24" as="geometry" />
        </mxCell>
        <mxCell id="tYwfjY5xRJ79dKcbQhgg-8" value="" style="endArrow=none;html=1;rounded=0;strokeColor=light-dark(#000000, #121212);startArrow=block;startFill=0;entryX=0.502;entryY=1;entryDx=0;entryDy=0;entryPerimeter=0;exitX=0.5;exitY=0;exitDx=0;exitDy=0;" edge="1" parent="WIyWlLk6GJQsqaUBKTNV-1">
          <mxGeometry width="50" height="50" relative="1" as="geometry">
            <mxPoint x="869.58" y="380" as="sourcePoint" />
            <mxPoint x="869.58" y="340" as="targetPoint" />
          </mxGeometry>
        </mxCell>
        <mxCell id="tYwfjY5xRJ79dKcbQhgg-9" value="statistics" style="swimlane;fontStyle=2;align=center;verticalAlign=top;childLayout=stackLayout;horizontal=1;startSize=26;horizontalStack=0;resizeParent=1;resizeLast=0;collapsible=1;marginBottom=0;rounded=0;shadow=0;strokeWidth=1;" vertex="1" parent="WIyWlLk6GJQsqaUBKTNV-1">
          <mxGeometry x="400" y="400" width="220" height="160" as="geometry">
            <mxRectangle x="230" y="140" width="160" height="26" as="alternateBounds" />
          </mxGeometry>
        </mxCell>
        <mxCell id="tYwfjY5xRJ79dKcbQhgg-10" value="- *ui: Ui::statistics&#xa;" style="text;align=left;verticalAlign=top;spacingLeft=4;spacingRight=4;overflow=hidden;rotatable=0;points=[[0,0.5],[1,0.5]];portConstraint=eastwest;" vertex="1" parent="tYwfjY5xRJ79dKcbQhgg-9">
          <mxGeometry y="26" width="220" height="24" as="geometry" />
        </mxCell>
        <mxCell id="tYwfjY5xRJ79dKcbQhgg-11" value="" style="line;html=1;strokeWidth=1;align=left;verticalAlign=middle;spacingTop=-1;spacingLeft=3;spacingRight=3;rotatable=0;labelPosition=right;points=[];portConstraint=eastwest;" vertex="1" parent="tYwfjY5xRJ79dKcbQhgg-9">
          <mxGeometry y="50" width="220" height="10" as="geometry" />
        </mxCell>
        <mxCell id="tYwfjY5xRJ79dKcbQhgg-12" value="+ statistics(*parent: QWidget) : explicit&#xa;+ ~statistics()&#xa;- stats_of_completed() : void&#xa;- stats_of_deleted() : void&#xa;- stats_of_active() : void&#xa;- closeWin() : void &#xa;&#xa;&#xa;" style="text;align=left;verticalAlign=top;spacingLeft=4;spacingRight=4;overflow=hidden;rotatable=0;points=[[0,0.5],[1,0.5]];portConstraint=eastwest;" vertex="1" parent="tYwfjY5xRJ79dKcbQhgg-9">
          <mxGeometry y="60" width="220" height="100" as="geometry" />
        </mxCell>
        <mxCell id="tYwfjY5xRJ79dKcbQhgg-13" value="" style="endArrow=none;html=1;rounded=0;strokeColor=light-dark(#000000, #121212);startArrow=block;startFill=0;entryX=0.5;entryY=0;entryDx=0;entryDy=0;exitX=0.5;exitY=1;exitDx=0;exitDy=0;" edge="1" parent="WIyWlLk6GJQsqaUBKTNV-1" source="tuQ0a4XlxuVtjZ9UOgZp-5" target="tYwfjY5xRJ79dKcbQhgg-9">
          <mxGeometry width="50" height="50" relative="1" as="geometry">
            <mxPoint x="490" y="400" as="sourcePoint" />
            <mxPoint x="490" y="360" as="targetPoint" />
          </mxGeometry>
        </mxCell>
      </root>
    </mxGraphModel>
  </diagram>
</mxfile>
